<svg width="512" height="512" viewBox="0 0 512 512" fill="none" xmlns="http://www.w3.org/2000/svg">
  <circle cx="256" cy="256" r="248" fill="white"/>
  <path d="M256 64C211 64 171 91 149 134L112 208C100 232 112 262 137 272L168 285L153 416H359L344 285L375 272C400 262 412 232 400 208L363 134C341 91 301 64 256 64Z" fill="#050505"/>
  <path d="M192 172C192 145 214 123 241 123H271C298 123 320 145 320 172V264H192V172Z" fill="white"/>
  <path d="M207 177C207 156 224 139 245 139H267C288 139 305 156 305 177V259H207V177Z" fill="#050505"/>
  <path d="M186 177L166 223C156 246 164 273 186 285L218 302V355H294V302L326 285C348 273 356 246 346 223L326 177H186Z" fill="#050505"/>
  <path d="M219 170C219 153 232 140 249 140H263C280 140 293 153 293 170V173H219V170Z" fill="#050505"/>
  <path d="M228 188L206 224C198 236 202 252 215 258L235 268V218C235 202 236 195 228 188Z" fill="white"/>
  <path d="M284 188C276 195 277 202 277 218V268L297 258C310 252 314 236 306 224L284 188Z" fill="white"/>
  <path d="M142 348C142 327 159 310 180 310H332C353 310 370 327 370 348V398H142V348Z" fill="#050505"/>
  <rect x="96" y="404" width="320" height="14" rx="7" fill="#050505"/>
  <circle cx="256" cy="332" r="20" fill="white"/>
</svg>
